<?xml version="1.0" encoding="UTF-8" standalone="no"?>
<svg width="24px" height="24px" viewBox="0 0 24 24" version="1.1" xmlns="http://www.w3.org/2000/svg" xmlns:xlink="http://www.w3.org/1999/xlink">
    <!-- Generator: Sketch 46.2 (44496) - http://www.bohemiancoding.com/sketch -->
    <title>logo-24</title>
    <desc>Created with Sketch.</desc>
    <defs></defs>
    <g id="Page-1" stroke="none" stroke-width="1" fill="none" fill-rule="evenodd">
        <g id="logo-24">
            <g id="Group">
                <circle id="Oval-2" fill="#FFFFFF" cx="12" cy="12" r="12"></circle>
                <g id="Group-2" transform="translate(4.500000, 3.750000)">
                    <path d="M1.5,15.0691882 L3.51752768,15.0691882 L3.51752768,2.98892989 L1.5,2.98892989 L1.5,2.01752768 L8.99723247,2.01752768 C10.4086786,2.01752768 11.4963061,2.35377893 12.2601476,3.02629151 C13.0239891,3.6988041 13.4059041,4.59132285 13.4059041,5.70387454 C13.4059041,6.73339998 13.0945603,7.58440623 12.4718635,8.25691882 C11.8491666,8.92943141 10.8487154,9.32380016 9.4704797,9.4400369 L12.9326568,15.0691882 L15,15.0691882 L15,16.0405904 L11.9363469,16.0405904 L8.05073801,9.56457565 L5.85885609,9.56457565 L5.85885609,8.54335793 L8.52398524,8.54335793 C9.78598417,8.54335793 10.6743517,8.26937543 11.1891144,7.72140221 C11.7038771,7.17342899 11.9612546,6.50922899 11.9612546,5.72878229 C11.9612546,4.94833558 11.7204821,4.29658933 11.2389299,3.77352399 C10.7573777,3.25045864 10.0184552,2.98892989 9.02214022,2.98892989 L4.98708487,2.98892989 L4.98708487,15.0691882 L7.00461255,15.0691882 L7.00461255,16.0405904 L1.5,16.0405904 L1.5,15.0691882 Z" id="R" stroke="#F4CA14" stroke-width="2" fill="#F4CA14" stroke-linecap="round" stroke-linejoin="round"></path>
                    <path d="M0,13.5691882 L2.01752768,13.5691882 L2.01752768,1.48892989 L0,1.48892989 L0,0.517527675 L7.49723247,0.517527675 C8.90867864,0.517527675 9.99630614,0.853778925 10.7601476,1.52629151 C11.5239891,2.1988041 11.9059041,3.09132285 11.9059041,4.20387454 C11.9059041,5.23339998 11.5945603,6.08440623 10.9718635,6.75691882 C10.3491666,7.42943141 9.34871538,7.82380016 7.9704797,7.9400369 L11.4326568,13.5691882 L13.5,13.5691882 L13.5,14.5405904 L10.4363469,14.5405904 L6.55073801,8.06457565 L4.35885609,8.06457565 L4.35885609,7.04335793 L7.02398524,7.04335793 C8.28598417,7.04335793 9.17435167,6.76937543 9.68911439,6.22140221 C10.2038771,5.67342899 10.4612546,5.00922899 10.4612546,4.22878229 C10.4612546,3.44833558 10.2204821,2.79658933 9.73892989,2.27352399 C9.25737767,1.75045864 8.51845517,1.48892989 7.52214022,1.48892989 L3.48708487,1.48892989 L3.48708487,13.5691882 L5.50461255,13.5691882 L5.50461255,14.5405904 L0,14.5405904 L0,13.5691882 Z" id="R" stroke="#904A2E" fill="#904A2E"></path>
                </g>
            </g>
        </g>
    </g>
</svg>